<svg width="36" height="36" viewBox="0 0 36 36" fill="none" xmlns="http://www.w3.org/2000/svg">
<path d="M17.6023 12.3877L8.0004 20.2959V28.8312C8.0004 29.0522 8.08819 29.2641 8.24445 29.4204C8.40072 29.5767 8.61267 29.6645 8.83366 29.6645L14.6697 29.6494C14.8899 29.6483 15.1008 29.56 15.2562 29.4038C15.4116 29.2477 15.4988 29.0364 15.4988 28.8161V23.8316C15.4988 23.6106 15.5866 23.3986 15.7428 23.2424C15.8991 23.0861 16.111 22.9983 16.332 22.9983H19.6651C19.8861 22.9983 20.0981 23.0861 20.2543 23.2424C20.4106 23.3986 20.4984 23.6106 20.4984 23.8316V28.8125C20.498 28.9221 20.5193 29.0307 20.5611 29.1321C20.6028 29.2335 20.6641 29.3257 20.7415 29.4034C20.8189 29.481 20.9109 29.5426 21.0122 29.5847C21.1134 29.6267 21.222 29.6483 21.3317 29.6483L27.1656 29.6645C27.3866 29.6645 27.5985 29.5767 27.7548 29.4204C27.9111 29.2641 27.9989 29.0522 27.9989 28.8312V20.2902L18.3991 12.3877C18.2862 12.2967 18.1456 12.2471 18.0007 12.2471C17.8557 12.2471 17.7151 12.2967 17.6023 12.3877ZM32.7693 17.7628L28.4155 14.174V6.96049C28.4155 6.79475 28.3496 6.63579 28.2324 6.51859C28.1152 6.40138 27.9563 6.33554 27.7905 6.33554H24.8741C24.7083 6.33554 24.5494 6.40138 24.4322 6.51859C24.315 6.63579 24.2491 6.79475 24.2491 6.96049V10.742L19.5865 6.90581C19.139 6.5376 18.5775 6.33628 17.9981 6.33628C17.4186 6.33628 16.8571 6.5376 16.4096 6.90581L3.2268 17.7628C3.16352 17.8151 3.11117 17.8794 3.07273 17.9519C3.03429 18.0244 3.01052 18.1039 3.00278 18.1856C2.99504 18.2673 3.00349 18.3498 3.02763 18.4283C3.05177 18.5067 3.09114 18.5797 3.14348 18.6429L4.4715 20.2574C4.5237 20.3209 4.58791 20.3734 4.66044 20.412C4.73298 20.4507 4.81242 20.4746 4.89422 20.4825C4.97603 20.4904 5.05858 20.4821 5.13716 20.458C5.21574 20.4339 5.2888 20.3946 5.35216 20.3423L17.6023 10.2524C17.7151 10.1615 17.8557 10.1118 18.0007 10.1118C18.1456 10.1118 18.2862 10.1615 18.3991 10.2524L30.6497 20.3423C30.7129 20.3946 30.7859 20.434 30.8644 20.4581C30.9428 20.4823 31.0253 20.4907 31.107 20.483C31.1888 20.4752 31.2682 20.4515 31.3407 20.413C31.4133 20.3746 31.4775 20.3222 31.5298 20.2589L32.8579 18.6445C32.9101 18.5809 32.9493 18.5076 32.9732 18.4287C32.9971 18.3499 33.0051 18.2672 32.9969 18.1852C32.9886 18.1033 32.9643 18.0238 32.9253 17.9513C32.8862 17.8788 32.8332 17.8147 32.7693 17.7628Z" fill="#444B59"/>
</svg>
