<svg width="200" height="200" viewBox="0 0 200 200" fill="none" xmlns="http://www.w3.org/2000/svg">
<g filter="url(#filter0_ddd)">
<circle cx="100" cy="90" r="80" fill="white"/>
<circle cx="100" cy="90" r="79.75" stroke="#C6C6C6" stroke-width="0.5"/>
</g>
<g filter="url(#filter1_f)">
<ellipse cx="102.5" cy="113.5" rx="36.5" ry="10.5" fill="black" fill-opacity="0.3"/>
</g>
<path d="M140.983 119.284L134.855 85.5226C134.794 85.1856 134.585 84.8937 134.285 84.7272L118.862 76.1487C118.662 76.0372 118.437 75.9928 118.217 76.0099L121.023 112.208L120.929 112.25L139.387 120.531C139.538 120.598 139.697 120.631 139.856 120.631C140.108 120.631 140.357 120.549 140.562 120.388C140.897 120.127 141.059 119.702 140.983 119.284Z" fill="#44C868"/>
<path d="M102.001 84.3496L86.2264 76.1336C86.0373 76.035 85.8277 75.9948 85.6213 76.0086C85.676 76.0053 85.731 76.0056 85.7855 76.0099L82.9795 112.208L101.532 120.531C101.682 120.598 101.842 120.632 102.001 120.632V84.3496Z" fill="#44C868"/>
<path d="M85.7846 76.01C85.5641 75.9929 85.3397 76.0373 85.1395 76.1486L69.7158 84.7271C69.4163 84.8936 69.2072 85.1854 69.1462 85.5225L63.0184 119.284C62.9425 119.701 63.1046 120.127 63.4393 120.388C63.6445 120.549 63.8936 120.632 64.145 120.632C64.3039 120.632 64.4637 120.599 64.6138 120.531L82.9718 112.295L85.7846 76.01Z" fill="#4CE166"/>
<path d="M118.215 76.0093C118.064 76.021 117.914 76.0614 117.774 76.1339L102 84.3498V120.632C102 120.632 102 120.632 102 120.632C102.159 120.632 102.319 120.599 102.469 120.531L121.022 112.208L118.215 76.0093Z" fill="#4CE166"/>
<path d="M67.2887 95.7538L66.0439 102.612L84.4767 92.8765L84.9046 87.3557L84.9756 86.4401L67.2887 95.7538Z" fill="#FFDB56"/>
<path d="M84.6429 90.7357L84.477 92.8765L66.0443 102.612L63.0184 119.284C62.9425 119.701 63.1046 120.127 63.4393 120.388C63.6445 120.549 63.8936 120.632 64.145 120.632C64.3039 120.632 64.4637 120.598 64.6138 120.531L82.9718 112.295L84.6429 90.7357Z" fill="#A8EEFC"/>
<path d="M102.005 88.875L84.9765 86.4401L84.4775 92.8765L102.001 119.488V109.811L91.5442 93.3461L102.005 94.5973V88.875Z" fill="#FFBB24"/>
<path d="M133.071 84.052L125.662 79.9309L118.647 81.5698L118.735 82.7027L119.082 87.1715L133.071 84.052Z" fill="#FFBB24"/>
<path d="M119.703 95.1967L119.039 86.6275L118.647 81.5698L102.005 88.875V94.5974L112.876 89.8701L119.703 95.1967Z" fill="#FFDB56"/>
<path d="M140.981 119.284L139.442 110.803L119.08 87.1715L119.702 95.1967L140.584 120.367C140.902 120.104 141.055 119.691 140.981 119.284Z" fill="#FFBB24"/>
<path d="M102.073 51C93.2427 51 86.0586 58.1781 86.0586 67.0013C86.0586 72.4592 88.6498 78.3189 93.7605 84.4176C97.5141 88.897 101.217 91.7779 101.373 91.8984C101.579 92.0579 101.826 92.1376 102.073 92.1376C102.32 92.1376 102.568 92.0579 102.774 91.8984C102.929 91.7779 106.632 88.897 110.386 84.4176C115.496 78.3189 118.088 72.4593 118.088 67.0013C118.087 58.1781 110.903 51 102.073 51ZM108.004 67.0012C108.004 70.2738 105.348 72.927 102.073 72.927C98.7976 72.927 96.1422 70.274 96.1422 67.0012C96.1422 63.7283 98.7976 61.0753 102.073 61.0753C105.348 61.0753 108.004 63.7285 108.004 67.0012Z" fill="#FF4A4A"/>
<path d="M102.073 51C101.374 51 100.684 51.0454 100.008 51.1328C107.866 52.1485 113.957 58.8774 113.957 67.0013C113.957 72.4592 111.366 78.3189 106.255 84.4176C103.841 87.2981 101.45 89.5161 100.008 90.7656C100.808 91.4591 101.318 91.8555 101.373 91.8984C101.579 92.0579 101.826 92.1376 102.074 92.1376C102.321 92.1376 102.568 92.0579 102.774 91.8984C102.93 91.7779 106.633 88.897 110.386 84.4176C115.497 78.3189 118.088 72.4593 118.088 67.0013C118.088 58.1781 110.904 51 102.073 51Z" fill="#E7343F"/>
<path d="M102.469 120.531L109.368 117.436L102 109.811V120.632C102 120.632 102 120.632 102 120.632C102.159 120.632 102.319 120.599 102.469 120.531Z" fill="#FFDB56"/>
<path d="M134.854 85.5225C134.793 85.1855 134.584 84.8936 134.285 84.7271L133.07 84.0518L119.081 87.1713L139.443 110.803L134.854 85.5225Z" fill="#1EA4E9"/>
<path d="M102 120.632C102 120.632 102 120.632 102 120.632V119.488L84.4771 92.8765L82.9785 112.208L101.531 120.531C101.681 120.599 101.841 120.632 102 120.632Z" fill="#1EA4E9"/>
<defs>
<filter id="filter0_ddd" x="0" y="0" width="200" height="200" filterUnits="userSpaceOnUse" color-interpolation-filters="sRGB">
<feFlood flood-opacity="0" result="BackgroundImageFix"/>
<feColorMatrix in="SourceAlpha" type="matrix" values="0 0 0 0 0 0 0 0 0 0 0 0 0 0 0 0 0 0 127 0"/>
<feOffset/>
<feGaussianBlur stdDeviation="0.5"/>
<feColorMatrix type="matrix" values="0 0 0 0 0 0 0 0 0 0 0 0 0 0 0 0 0 0 0.04 0"/>
<feBlend mode="normal" in2="BackgroundImageFix" result="effect1_dropShadow"/>
<feColorMatrix in="SourceAlpha" type="matrix" values="0 0 0 0 0 0 0 0 0 0 0 0 0 0 0 0 0 0 127 0"/>
<feOffset dy="2"/>
<feGaussianBlur stdDeviation="3"/>
<feColorMatrix type="matrix" values="0 0 0 0 0 0 0 0 0 0 0 0 0 0 0 0 0 0 0.04 0"/>
<feBlend mode="normal" in2="effect1_dropShadow" result="effect2_dropShadow"/>
<feColorMatrix in="SourceAlpha" type="matrix" values="0 0 0 0 0 0 0 0 0 0 0 0 0 0 0 0 0 0 127 0"/>
<feOffset dy="10"/>
<feGaussianBlur stdDeviation="10"/>
<feColorMatrix type="matrix" values="0 0 0 0 0 0 0 0 0 0 0 0 0 0 0 0 0 0 0.04 0"/>
<feBlend mode="normal" in2="effect2_dropShadow" result="effect3_dropShadow"/>
<feBlend mode="normal" in="SourceGraphic" in2="effect3_dropShadow" result="shape"/>
</filter>
<filter id="filter1_f" x="26" y="63" width="153" height="101" filterUnits="userSpaceOnUse" color-interpolation-filters="sRGB">
<feFlood flood-opacity="0" result="BackgroundImageFix"/>
<feBlend mode="normal" in="SourceGraphic" in2="BackgroundImageFix" result="shape"/>
<feGaussianBlur stdDeviation="20" result="effect1_foregroundBlur"/>
</filter>
</defs>
</svg>
