<svg width="200" height="200" viewBox="0 0 200 200" fill="none" xmlns="http://www.w3.org/2000/svg">
<g filter="url(#filter0_ddd)">
<circle cx="100" cy="90" r="80" fill="white"/>
<circle cx="100" cy="90" r="79.75" stroke="#C6C6C6" stroke-width="0.5"/>
</g>
<g filter="url(#filter1_f)">
<ellipse cx="100.5" cy="122" rx="36.5" ry="9" fill="black" fill-opacity="0.3"/>
</g>
<path d="M68.7998 67.6H131.2V122.2H68.7998V67.6Z" fill="#7FCAC9"/>
<path d="M84.4004 78H115.6V88.4H84.4004V78Z" fill="#195C85"/>
<path d="M84.4004 88.4H89.6004V122.2H84.4004V88.4Z" fill="#195C85"/>
<path d="M110.4 88.4H115.6V122.2H110.4V88.4Z" fill="#195C85"/>
<path d="M62.2998 122.2H137.7V127.4H62.2998V122.2Z" fill="#238892"/>
<path d="M85.7002 57.2H114.3V78H85.7002V57.2Z" fill="#CFDFE8"/>
<path d="M80.5 52H119.5V57.2H80.5V52Z" fill="#195C85"/>
<path d="M96.0996 110.5H103.9V122.2H96.0996V110.5Z" fill="#238892"/>
<path d="M72.7002 113.1H75.3002V115.7H72.7002V113.1Z" fill="#195C85"/>
<path d="M77.9004 113.1H80.5004V115.7H77.9004V113.1Z" fill="#195C85"/>
<path d="M72.7002 107.9H75.3002V110.5H72.7002V107.9Z" fill="#195C85"/>
<path d="M77.9004 107.9H80.5004V110.5H77.9004V107.9Z" fill="#195C85"/>
<path d="M72.7002 102.7H75.3002V105.3H72.7002V102.7Z" fill="#195C85"/>
<path d="M77.9004 102.7H80.5004V105.3H77.9004V102.7Z" fill="#195C85"/>
<path d="M72.7002 97.5H75.3002V100.1H72.7002V97.5Z" fill="#195C85"/>
<path d="M77.9004 97.5H80.5004V100.1H77.9004V97.5Z" fill="#195C85"/>
<path d="M72.7002 92.3H75.3002V94.9H72.7002V92.3Z" fill="#195C85"/>
<path d="M77.9004 92.3H80.5004V94.9H77.9004V92.3Z" fill="#195C85"/>
<path d="M72.7002 87.1H75.3002V89.7H72.7002V87.1Z" fill="#195C85"/>
<path d="M77.9004 87.1H80.5004V89.7H77.9004V87.1Z" fill="#195C85"/>
<path d="M72.7002 81.9H75.3002V84.5H72.7002V81.9Z" fill="#195C85"/>
<path d="M77.9004 81.9H80.5004V84.5H77.9004V81.9Z" fill="#195C85"/>
<path d="M72.7002 76.7001H75.3002V79.3001H72.7002V76.7001Z" fill="#195C85"/>
<path d="M77.9004 76.7001H80.5004V79.3001H77.9004V76.7001Z" fill="#195C85"/>
<path d="M72.7002 71.5H75.3002V74.1H72.7002V71.5Z" fill="#195C85"/>
<path d="M77.9004 71.5H80.5004V74.1H77.9004V71.5Z" fill="#195C85"/>
<path d="M119.5 113.1H122.1V115.7H119.5V113.1Z" fill="#195C85"/>
<path d="M124.7 113.1H127.3V115.7H124.7V113.1Z" fill="#195C85"/>
<path d="M119.5 107.9H122.1V110.5H119.5V107.9Z" fill="#195C85"/>
<path d="M124.7 107.9H127.3V110.5H124.7V107.9Z" fill="#195C85"/>
<path d="M119.5 102.7H122.1V105.3H119.5V102.7Z" fill="#195C85"/>
<path d="M124.7 102.7H127.3V105.3H124.7V102.7Z" fill="#195C85"/>
<path d="M119.5 97.5H122.1V100.1H119.5V97.5Z" fill="#195C85"/>
<path d="M98.7002 104H101.3V106.6H98.7002V104Z" fill="#195C85"/>
<path d="M93.5 104H96.1V106.6H93.5V104Z" fill="#195C85"/>
<path d="M103.9 104H106.5V106.6H103.9V104Z" fill="#195C85"/>
<path d="M98.7002 98.8H101.3V101.4H98.7002V98.8Z" fill="#195C85"/>
<path d="M93.5 98.8H96.1V101.4H93.5V98.8Z" fill="#195C85"/>
<path d="M103.9 98.8H106.5V101.4H103.9V98.8Z" fill="#195C85"/>
<path d="M98.7002 93.6001H101.3V96.2001H98.7002V93.6001Z" fill="#195C85"/>
<path d="M93.5 93.6001H96.1V96.2001H93.5V93.6001Z" fill="#195C85"/>
<path d="M103.9 93.6001H106.5V96.2001H103.9V93.6001Z" fill="#195C85"/>
<path d="M98.7002 71.5H101.3V74.1H98.7002V71.5Z" fill="#195C85"/>
<path d="M93.5 71.5H96.1V74.1H93.5V71.5Z" fill="#195C85"/>
<path d="M103.9 71.5H106.5V74.1H103.9V71.5Z" fill="#195C85"/>
<path d="M98.7002 66.3H101.3V68.9H98.7002V66.3Z" fill="#195C85"/>
<path d="M93.5 66.3H96.1V68.9H93.5V66.3Z" fill="#195C85"/>
<path d="M103.9 66.3H106.5V68.9H103.9V66.3Z" fill="#195C85"/>
<path d="M98.7002 61.1001H101.3V63.7001H98.7002V61.1001Z" fill="#195C85"/>
<path d="M93.5 61.1001H96.1V63.7001H93.5V61.1001Z" fill="#195C85"/>
<path d="M103.9 61.1001H106.5V63.7001H103.9V61.1001Z" fill="#195C85"/>
<path d="M124.7 97.5H127.3V100.1H124.7V97.5Z" fill="#195C85"/>
<path d="M119.5 92.3H122.1V94.9H119.5V92.3Z" fill="#195C85"/>
<path d="M124.7 92.3H127.3V94.9H124.7V92.3Z" fill="#195C85"/>
<path d="M119.5 87.1H122.1V89.7H119.5V87.1Z" fill="#195C85"/>
<path d="M124.7 87.1H127.3V89.7H124.7V87.1Z" fill="#195C85"/>
<path d="M119.5 81.9H122.1V84.5H119.5V81.9Z" fill="#195C85"/>
<path d="M124.7 81.9H127.3V84.5H124.7V81.9Z" fill="#195C85"/>
<path d="M119.5 76.7001H122.1V79.3001H119.5V76.7001Z" fill="#195C85"/>
<path d="M124.7 76.7001H127.3V79.3001H124.7V76.7001Z" fill="#195C85"/>
<path d="M119.5 71.5H122.1V74.1H119.5V71.5Z" fill="#195C85"/>
<path d="M124.7 71.5H127.3V74.1H124.7V71.5Z" fill="#195C85"/>
<path d="M63.5996 117H66.1996V122.2H63.5996V117Z" fill="#D3843D"/>
<path d="M133.8 117H136.4V122.2H133.8V117Z" fill="#D3843D"/>
<path d="M88.2998 81.9H90.8998V84.5H88.2998V81.9Z" fill="#CFDFE8"/>
<path d="M109.1 81.9H111.7V84.5H109.1V81.9Z" fill="#CFDFE8"/>
<path d="M64.9 118.3C67.0539 118.3 68.8 115.39 68.8 111.8C68.8 108.21 67.0539 105.3 64.9 105.3C62.7461 105.3 61 108.21 61 111.8C61 115.39 62.7461 118.3 64.9 118.3Z" fill="#55B56A"/>
<path d="M135.1 118.3C137.254 118.3 139 115.39 139 111.8C139 108.21 137.254 105.3 135.1 105.3C132.946 105.3 131.2 108.21 131.2 111.8C131.2 115.39 132.946 118.3 135.1 118.3Z" fill="#55B56A"/>
<defs>
<filter id="filter0_ddd" x="0" y="0" width="200" height="200" filterUnits="userSpaceOnUse" color-interpolation-filters="sRGB">
<feFlood flood-opacity="0" result="BackgroundImageFix"/>
<feColorMatrix in="SourceAlpha" type="matrix" values="0 0 0 0 0 0 0 0 0 0 0 0 0 0 0 0 0 0 127 0"/>
<feOffset/>
<feGaussianBlur stdDeviation="0.5"/>
<feColorMatrix type="matrix" values="0 0 0 0 0 0 0 0 0 0 0 0 0 0 0 0 0 0 0.04 0"/>
<feBlend mode="normal" in2="BackgroundImageFix" result="effect1_dropShadow"/>
<feColorMatrix in="SourceAlpha" type="matrix" values="0 0 0 0 0 0 0 0 0 0 0 0 0 0 0 0 0 0 127 0"/>
<feOffset dy="2"/>
<feGaussianBlur stdDeviation="3"/>
<feColorMatrix type="matrix" values="0 0 0 0 0 0 0 0 0 0 0 0 0 0 0 0 0 0 0.04 0"/>
<feBlend mode="normal" in2="effect1_dropShadow" result="effect2_dropShadow"/>
<feColorMatrix in="SourceAlpha" type="matrix" values="0 0 0 0 0 0 0 0 0 0 0 0 0 0 0 0 0 0 127 0"/>
<feOffset dy="10"/>
<feGaussianBlur stdDeviation="10"/>
<feColorMatrix type="matrix" values="0 0 0 0 0 0 0 0 0 0 0 0 0 0 0 0 0 0 0.04 0"/>
<feBlend mode="normal" in2="effect2_dropShadow" result="effect3_dropShadow"/>
<feBlend mode="normal" in="SourceGraphic" in2="effect3_dropShadow" result="shape"/>
</filter>
<filter id="filter1_f" x="24" y="73" width="153" height="98" filterUnits="userSpaceOnUse" color-interpolation-filters="sRGB">
<feFlood flood-opacity="0" result="BackgroundImageFix"/>
<feBlend mode="normal" in="SourceGraphic" in2="BackgroundImageFix" result="shape"/>
<feGaussianBlur stdDeviation="20" result="effect1_foregroundBlur"/>
</filter>
</defs>
</svg>
