<svg width="200" height="200" viewBox="0 0 200 200" fill="none" xmlns="http://www.w3.org/2000/svg">
<g filter="url(#filter0_ddd)">
<circle cx="100" cy="90" r="80" fill="white"/>
<circle cx="100" cy="90" r="79.75" stroke="#C6C6C6" stroke-width="0.5"/>
</g>
<g filter="url(#filter1_f)">
<ellipse cx="100" cy="124.5" rx="37" ry="10.5" fill="black" fill-opacity="0.3"/>
</g>
<path d="M101.773 127.227H62.7727C61.7092 127.227 61 126.518 61 125.455V121.909C61 120.845 61.7092 120.136 62.7727 120.136H101.773C102.836 120.136 103.545 120.846 103.545 121.909V125.455C103.545 126.518 102.836 127.227 101.773 127.227Z" fill="#F6B545"/>
<path d="M94.6818 121.909H61C61 120.846 61.7092 120.137 62.7727 120.137H94.6818V121.909Z" fill="#FFCB5B"/>
<path d="M94.6818 121.909V123.682C94.6818 124.746 93.9727 125.455 92.9092 125.455H61C61 126.518 61.7092 127.227 62.7727 127.227H92.909H101.773C102.836 127.227 103.545 126.518 103.545 125.455V121.909H94.6818V121.909Z" fill="#F19920"/>
<path d="M66.3176 125.455V122.795C66.3176 122.264 65.9631 121.909 65.4313 121.909C64.8994 121.909 64.5449 122.264 64.5449 122.795V125.455" fill="#F19920"/>
<path d="M71.6369 125.455V122.795C71.6369 122.264 71.2824 121.909 70.7506 121.909C70.2188 121.909 69.8643 122.264 69.8643 122.795V125.455" fill="#F19920"/>
<path d="M76.9543 125.455V122.795C76.9543 122.264 76.5998 121.909 76.068 121.909C75.5361 121.909 75.1816 122.264 75.1816 122.795V125.455" fill="#F19920"/>
<path d="M82.2727 125.455V122.795C82.2727 122.264 81.9182 121.909 81.3863 121.909C80.8545 121.909 80.5 122.264 80.5 122.795V125.455" fill="#F19920"/>
<path d="M87.591 125.455V122.795C87.591 122.264 87.2365 121.909 86.7047 121.909C86.1729 121.909 85.8184 122.264 85.8184 122.795V125.455" fill="#F19920"/>
<path d="M92.9084 125.455V122.795C92.9084 122.264 92.5539 121.909 92.0221 121.909C91.4902 121.909 91.1357 122.264 91.1357 122.795V125.455" fill="#F19920"/>
<path d="M105.318 120.136H66.3176C65.2539 120.136 64.5449 119.427 64.5449 118.364V114.818C64.5449 113.754 65.2541 113.045 66.3176 113.045H105.318C106.381 113.045 107.09 113.755 107.09 114.818V118.364C107.09 119.427 106.381 120.136 105.318 120.136Z" fill="#F6B545"/>
<path d="M98.2268 114.818H64.5449C64.5449 113.754 65.2541 113.045 66.3176 113.045H98.2268V114.818Z" fill="#FFCB5B"/>
<path d="M98.2267 114.818V116.591C98.2267 117.655 97.5176 118.364 96.4541 118.364H64.5449C64.5449 119.427 65.2541 120.136 66.3176 120.136H96.4539H105.318C106.381 120.136 107.09 119.427 107.09 118.364V114.818H98.2267V114.818Z" fill="#F19920"/>
<path d="M69.8625 118.364V115.705C69.8625 115.173 69.508 114.818 68.9762 114.818C68.4443 114.818 68.0898 115.173 68.0898 115.705V118.364" fill="#F19920"/>
<path d="M75.1819 118.364V115.705C75.1819 115.173 74.8273 114.818 74.2955 114.818C73.7637 114.818 73.4092 115.173 73.4092 115.705V118.364" fill="#F19920"/>
<path d="M80.4992 118.364V115.705C80.4992 115.173 80.1447 114.818 79.6129 114.818C79.0811 114.818 78.7266 115.173 78.7266 115.705V118.364" fill="#F19920"/>
<path d="M85.8176 118.364V115.705C85.8176 115.173 85.4631 114.818 84.9313 114.818C84.3994 114.818 84.0449 115.173 84.0449 115.705V118.364" fill="#F19920"/>
<path d="M91.136 118.364V115.705C91.136 115.173 90.7814 114.818 90.2496 114.818C89.7178 114.818 89.3633 115.173 89.3633 115.705V118.364" fill="#F19920"/>
<path d="M96.4533 118.364V115.705C96.4533 115.173 96.0988 114.818 95.567 114.818C95.0352 114.818 94.6807 115.173 94.6807 115.705V118.364" fill="#F19920"/>
<path d="M108.863 105.954H69.8635C68.7998 105.954 68.0908 105.245 68.0908 104.182V100.636C68.0908 99.5727 68.8 98.8636 69.8635 98.8636H108.863C109.927 98.8636 110.636 99.5728 110.636 100.636V104.182C110.636 105.245 109.927 105.954 108.863 105.954Z" fill="#F6B545"/>
<path d="M101.773 100.636H68.0908C68.0908 99.5727 68.8 98.8636 69.8635 98.8636H101.773V100.636Z" fill="#FFCB5B"/>
<path d="M101.773 100.636V102.409C101.773 103.473 101.063 104.182 100 104.182H68.0908C68.0908 105.245 68.8 105.954 69.8635 105.954H100H108.864C109.927 105.954 110.636 105.245 110.636 104.182V100.636H101.773V100.636Z" fill="#F19920"/>
<path d="M73.4084 104.182V101.523C73.4084 100.991 73.0539 100.636 72.5221 100.636C71.9902 100.636 71.6357 100.991 71.6357 101.523V104.182" fill="#F19920"/>
<path d="M78.7278 104.182V101.523C78.7278 100.991 78.3732 100.636 77.8414 100.636C77.3096 100.636 76.9551 100.991 76.9551 101.523V104.182" fill="#F19920"/>
<path d="M84.0461 104.182V101.523C84.0461 100.991 83.6916 100.636 83.1598 100.636C82.6279 100.636 82.2734 100.991 82.2734 101.523V104.182" fill="#F19920"/>
<path d="M89.3635 104.182V101.523C89.3635 100.991 89.009 100.636 88.4772 100.636C87.9453 100.636 87.5908 100.991 87.5908 101.523V104.182" fill="#F19920"/>
<path d="M94.6819 104.182V101.523C94.6819 100.991 94.3273 100.636 93.7955 100.636C93.2637 100.636 92.9092 100.991 92.9092 101.523V104.182" fill="#F19920"/>
<path d="M99.9992 104.182V101.523C99.9992 100.991 99.6447 100.636 99.1129 100.636C98.5811 100.636 98.2266 100.991 98.2266 101.523V104.182" fill="#F19920"/>
<path d="M105.318 98.8637H66.3176C65.2539 98.8637 64.5449 98.1545 64.5449 97.091V93.5455C64.5449 92.4818 65.2541 91.7728 66.3176 91.7728H105.318C106.381 91.7728 107.09 92.482 107.09 93.5455V97.091C107.09 98.1545 106.381 98.8637 105.318 98.8637Z" fill="#F6B545"/>
<path d="M98.2268 93.5455H64.5449C64.5449 92.4818 65.2541 91.7728 66.3176 91.7728H98.2268V93.5455Z" fill="#FFCB5B"/>
<path d="M98.2267 93.5455V95.3182C98.2267 96.3818 97.5176 97.0908 96.4541 97.0908H64.5449C64.5449 98.1545 65.2541 98.8635 66.3176 98.8635H96.4539H105.318C106.381 98.8635 107.09 98.1544 107.09 97.0908V93.5453H98.2267V93.5455Z" fill="#F19920"/>
<path d="M69.8625 97.0908V94.4317C69.8625 93.8999 69.508 93.5453 68.9762 93.5453C68.4443 93.5453 68.0898 93.8999 68.0898 94.4317V97.0908" fill="#F19920"/>
<path d="M75.1819 97.0908V94.4317C75.1819 93.8999 74.8273 93.5453 74.2955 93.5453C73.7637 93.5453 73.4092 93.8999 73.4092 94.4317V97.0908" fill="#F19920"/>
<path d="M80.4992 97.0908V94.4317C80.4992 93.8999 80.1447 93.5453 79.6129 93.5453C79.0811 93.5453 78.7266 93.8999 78.7266 94.4317V97.0908" fill="#F19920"/>
<path d="M85.8176 97.0908V94.4317C85.8176 93.8999 85.4631 93.5453 84.9313 93.5453C84.3994 93.5453 84.0449 93.8999 84.0449 94.4317V97.0908" fill="#F19920"/>
<path d="M91.136 97.0908V94.4317C91.136 93.8999 90.7814 93.5453 90.2496 93.5453C89.7178 93.5453 89.3633 93.8999 89.3633 94.4317V97.0908" fill="#F19920"/>
<path d="M96.4533 97.0908V94.4317C96.4533 93.8999 96.0988 93.5453 95.567 93.5453C95.0352 93.5453 94.6807 93.8999 94.6807 94.4317V97.0908" fill="#F19920"/>
<path d="M101.773 113.046H62.7727C61.7092 113.046 61 112.336 61 111.273V107.727C61 106.664 61.7092 105.955 62.7727 105.955H101.773C102.836 105.955 103.545 106.664 103.545 107.727V111.273C103.545 112.336 102.836 113.046 101.773 113.046Z" fill="#F6B545"/>
<path d="M94.6818 107.727H61C61 106.664 61.7092 105.955 62.7727 105.955H94.6818V107.727Z" fill="#FFCB5B"/>
<path d="M94.6818 107.727V109.5C94.6818 110.564 93.9727 111.273 92.9092 111.273H61C61 112.336 61.7092 113.045 62.7727 113.045H92.909H101.773C102.836 113.045 103.545 112.336 103.545 111.273V107.727H94.6818V107.727Z" fill="#F19920"/>
<path d="M66.3176 111.273V108.614C66.3176 108.082 65.9631 107.727 65.4313 107.727C64.8994 107.727 64.5449 108.082 64.5449 108.614V111.273" fill="#F19920"/>
<path d="M71.6369 111.273V108.614C71.6369 108.082 71.2824 107.727 70.7506 107.727C70.2188 107.727 69.8643 108.082 69.8643 108.614V111.273" fill="#F19920"/>
<path d="M76.9543 111.273V108.614C76.9543 108.082 76.5998 107.727 76.068 107.727C75.5361 107.727 75.1816 108.082 75.1816 108.614V111.273" fill="#F19920"/>
<path d="M82.2727 111.273V108.614C82.2727 108.082 81.9182 107.727 81.3863 107.727C80.8545 107.727 80.5 108.082 80.5 108.614V111.273" fill="#F19920"/>
<path d="M87.591 111.273V108.614C87.591 108.082 87.2365 107.727 86.7047 107.727C86.1729 107.727 85.8184 108.082 85.8184 108.614V111.273" fill="#F19920"/>
<path d="M92.9084 111.273V108.614C92.9084 108.082 92.5539 107.727 92.0221 107.727C91.4902 107.727 91.1357 108.082 91.1357 108.614V111.273" fill="#F19920"/>
<path d="M135.454 115.705C133.15 114.109 131.909 111.45 131.909 108.614C131.909 97.8 127.654 87.5182 120.031 79.8955L112.409 72.2729V66.9547L118.613 59.1547C119.145 58.4455 119.5 57.5592 119.5 56.6727C119.5 54.5454 117.727 52.7727 115.6 52.7727H108.863L107.091 56.3182L103.545 52.7727H95.0359C92.9086 52.7727 91.1359 54.5454 91.1359 56.6727C91.1359 57.559 91.4904 58.4454 92.0222 59.1545L98.2267 66.9545V72.2727L90.6041 79.8954C82.9814 87.518 78.7267 97.7999 78.7267 108.614C78.7267 111.45 77.4859 114.109 75.1812 115.704C72.8766 117.3 71.6357 119.959 71.6357 122.795C71.6357 125.277 73.5857 127.227 76.0676 127.227H134.568C137.049 127.227 138.999 125.277 138.999 122.795C139 119.959 137.759 117.3 135.454 115.705Z" fill="#C97629"/>
<path d="M135.454 115.705C133.15 113.932 131.909 111.273 131.909 108.436C132.086 97.2682 126.945 86.809 119.145 78.8319L112.409 72.2727V66.9545L118.613 59.1545C119.677 57.9137 119.854 56.1409 118.968 54.5454C118.259 53.3045 116.841 52.7727 115.422 52.7727C114.181 52.7727 113.472 54.1909 113.827 55.2545C114.004 55.609 114.181 56.1409 114.181 56.6727C114.181 57.559 113.827 58.4454 113.295 59.1545L107.091 66.9545V72.2727H98.2268L96.4542 74.0454H108.863L115.422 80.6045C122.691 87.8727 125.527 97.8 124.818 107.905C124.641 110.918 125.882 113.755 128.186 115.527C128.363 115.705 128.541 115.882 128.718 115.882C131.377 118.718 129.072 123.504 124.995 123.504H71.8135C72.168 125.454 73.9408 127.05 76.068 127.05H127.477H131.909H134.568C137.05 127.05 139 125.1 139 122.618V122.264C139 119.605 137.582 117.3 135.454 115.705Z" fill="#B06328"/>
<path d="M113.295 72.2727H97.3408C95.9226 72.2727 94.6816 71.0318 94.6816 69.6135C94.6816 68.1953 95.9225 66.9543 97.3408 66.9543H113.295C114.713 66.9543 115.954 68.1952 115.954 69.6135C115.954 71.0318 114.714 72.2727 113.295 72.2727Z" fill="#FFCB5B"/>
<path d="M97.3414 66.9545H106.205C106.737 66.9545 107.091 67.309 107.091 67.8409C107.091 68.3727 106.737 68.7272 106.205 68.7272H97.3414C96.8096 68.7272 96.4551 68.3727 96.4551 67.8409C96.4551 67.3092 96.8097 66.9545 97.3414 66.9545Z" fill="#FFE278"/>
<path d="M113.296 66.9545H112.409V68.7272C112.409 69.7909 111.7 70.4999 110.637 70.4999H94.8594C95.2139 71.5635 96.2775 72.2726 97.3412 72.2726H113.296C114.714 72.2726 115.955 71.0317 115.955 69.6134C115.955 68.1951 114.714 66.9545 113.296 66.9545Z" fill="#F6B545"/>
<path d="M107.977 70.5H113.295C113.827 70.5 114.182 70.8545 114.182 71.3863C114.182 71.9182 113.827 72.2727 113.295 72.2727H107.977C107.445 72.2727 107.091 71.9182 107.091 71.3863C107.091 70.8545 107.445 70.5 107.977 70.5Z" fill="#F19920"/>
<path d="M107.09 72.2727H103.545V86.4545H107.09V72.2727Z" fill="#F6B545"/>
<path d="M103.545 72.2727V74.0455H105.318V86.4545H107.09V74.0455V72.2727H103.545Z" fill="#F19920"/>
<path d="M105.318 113.045C113.15 113.045 119.499 106.696 119.499 98.8637C119.499 91.0312 113.15 84.6818 105.318 84.6818C97.4852 84.6818 91.1357 91.0312 91.1357 98.8637C91.1357 106.696 97.4852 113.045 105.318 113.045Z" fill="#F6B545"/>
<path d="M116.132 89.8227C118.259 92.3045 119.5 95.3182 119.5 98.8637C119.5 106.664 113.118 113.046 105.318 113.046C101.773 113.046 98.759 111.805 96.2773 109.677C98.9365 112.868 102.837 114.818 107.091 114.818C114.891 114.818 121.273 108.436 121.273 100.636C121.273 96.2045 119.323 92.3045 116.132 89.8227Z" fill="#B06328"/>
<path d="M105.318 111.273C112.172 111.273 117.727 105.717 117.727 98.8637C117.727 92.0103 112.172 86.4545 105.318 86.4545C98.4649 86.4545 92.9092 92.0103 92.9092 98.8637C92.9092 105.717 98.4649 111.273 105.318 111.273Z" fill="#FFCB5B"/>
<path d="M117.728 98.8636C117.728 105.777 112.232 111.273 105.318 111.273V113.045C113.118 113.045 119.5 106.664 119.5 98.8636H117.728Z" fill="#F19920"/>
<path d="M105.318 86.4545V84.6818C97.5176 84.6818 91.1357 91.0637 91.1357 98.8637H92.9084C92.9086 91.95 98.4039 86.4545 105.318 86.4545Z" fill="#FFE27A"/>
<path d="M107.091 97.0908H103.546C102.482 97.0908 101.773 96.3817 101.773 95.3182C101.773 94.2545 102.482 93.5455 103.546 93.5455H108.864C109.927 93.5455 110.636 92.8363 110.636 91.7728C110.636 90.7092 109.927 90.0002 108.864 90.0002H107.091C107.091 88.9365 106.382 88.2275 105.318 88.2275C104.255 88.2275 103.546 88.9366 103.546 90.0002C100.532 90.0002 98.2275 92.3047 98.2275 95.3183C98.2275 98.332 100.532 100.636 103.546 100.636H107.091C108.155 100.636 108.864 101.346 108.864 102.409C108.864 103.473 108.155 104.182 107.091 104.182H101.773C100.709 104.182 100 104.891 100 105.955C100 107.018 100.71 107.727 101.773 107.727H103.546C103.546 108.791 104.255 109.5 105.318 109.5C106.382 109.5 107.091 108.791 107.091 107.727C110.105 107.727 112.409 105.423 112.409 102.409C112.409 99.3953 110.105 97.0908 107.091 97.0908Z" fill="#E78825"/>
<defs>
<filter id="filter0_ddd" x="0" y="0" width="200" height="200" filterUnits="userSpaceOnUse" color-interpolation-filters="sRGB">
<feFlood flood-opacity="0" result="BackgroundImageFix"/>
<feColorMatrix in="SourceAlpha" type="matrix" values="0 0 0 0 0 0 0 0 0 0 0 0 0 0 0 0 0 0 127 0"/>
<feOffset/>
<feGaussianBlur stdDeviation="0.5"/>
<feColorMatrix type="matrix" values="0 0 0 0 0 0 0 0 0 0 0 0 0 0 0 0 0 0 0.04 0"/>
<feBlend mode="normal" in2="BackgroundImageFix" result="effect1_dropShadow"/>
<feColorMatrix in="SourceAlpha" type="matrix" values="0 0 0 0 0 0 0 0 0 0 0 0 0 0 0 0 0 0 127 0"/>
<feOffset dy="2"/>
<feGaussianBlur stdDeviation="3"/>
<feColorMatrix type="matrix" values="0 0 0 0 0 0 0 0 0 0 0 0 0 0 0 0 0 0 0.04 0"/>
<feBlend mode="normal" in2="effect1_dropShadow" result="effect2_dropShadow"/>
<feColorMatrix in="SourceAlpha" type="matrix" values="0 0 0 0 0 0 0 0 0 0 0 0 0 0 0 0 0 0 127 0"/>
<feOffset dy="10"/>
<feGaussianBlur stdDeviation="10"/>
<feColorMatrix type="matrix" values="0 0 0 0 0 0 0 0 0 0 0 0 0 0 0 0 0 0 0.04 0"/>
<feBlend mode="normal" in2="effect2_dropShadow" result="effect3_dropShadow"/>
<feBlend mode="normal" in="SourceGraphic" in2="effect3_dropShadow" result="shape"/>
</filter>
<filter id="filter1_f" x="23" y="74" width="154" height="101" filterUnits="userSpaceOnUse" color-interpolation-filters="sRGB">
<feFlood flood-opacity="0" result="BackgroundImageFix"/>
<feBlend mode="normal" in="SourceGraphic" in2="BackgroundImageFix" result="shape"/>
<feGaussianBlur stdDeviation="20" result="effect1_foregroundBlur"/>
</filter>
</defs>
</svg>
